<svg xmlns="http://www.w3.org/2000/svg" xmlns:xlink="http://www.w3.org/1999/xlink" width="500" zoomAndPan="magnify" viewBox="0 0 375 374.999991" height="500" preserveAspectRatio="xMidYMid meet" version="1.0"><defs><clipPath id="02c3282a81"><path d="M 49.214844 15 L 325.964844 15 L 325.964844 358 L 49.214844 358 Z M 49.214844 15 " clip-rule="nonzero"/></clipPath></defs><g clip-path="url(#02c3282a81)"><path fill="#000000" d="M 285.230469 183.882812 C 291.332031 176.234375 295.417969 167.613281 297.546875 157.972656 C 298.417969 158.085938 298.988281 158.195312 299.5625 158.25 C 307.109375 158.878906 314.65625 159.582031 322.21875 160.058594 C 323.386719 160.132812 324.625 159.246094 325.828125 158.824219 C 324.902344 157.917969 324.125 156.625 323.015625 156.164062 C 320 154.910156 316.894531 153.746094 313.710938 153.007812 C 308.699219 151.84375 303.59375 151.066406 298.398438 150.089844 C 298.5625 147.929688 298.730469 145.769531 298.914062 143.421875 C 300.082031 143.347656 301.152344 143.3125 302.226562 143.21875 C 309.164062 142.535156 316.117188 141.910156 323.050781 141.097656 C 324.070312 140.984375 324.976562 140.042969 325.9375 139.488281 C 324.957031 138.824219 324.050781 137.753906 322.976562 137.550781 C 319.558594 136.921875 316.078125 136.5 312.601562 136.238281 C 308.050781 135.890625 303.484375 135.757812 298.710938 135.519531 C 298.601562 134.300781 298.472656 133.117188 298.359375 131.957031 C 297.417969 120.007812 294.367188 108.671875 288.742188 98.015625 C 287.855469 96.355469 287.375 94.265625 287.355469 92.382812 C 287.28125 75.726562 285.246094 59.347656 279.605469 43.652344 C 277.035156 36.488281 273.578125 29.5625 269.839844 22.933594 C 266.03125 16.195312 261.054688 14.53125 253.582031 16.5625 C 250.808594 17.320312 248.109375 18.390625 245.519531 19.628906 C 235.03125 24.613281 225.394531 30.96875 216.203125 38.019531 C 215.296875 38.722656 213.78125 39.371094 212.800781 39.109375 C 196.375 34.714844 180.027344 35.640625 163.675781 39.515625 C 162.640625 39.757812 161.179688 39.351562 160.273438 38.703125 C 155.945312 35.695312 151.855469 32.296875 147.453125 29.398438 C 139.464844 24.152344 131.34375 19.039062 121.984375 16.472656 C 114.605469 14.460938 110.019531 16.214844 105.785156 22.546875 C 104.121094 25.019531 102.640625 27.625 101.328125 30.300781 C 91.839844 49.414062 88.175781 69.820312 87.730469 90.980469 C 87.675781 93.527344 86.679688 96.132812 85.773438 98.570312 C 83.460938 104.792969 80.480469 110.8125 78.613281 117.164062 C 76.894531 123.019531 76.265625 129.1875 75.097656 135.484375 C 72.492188 135.484375 69.679688 135.28125 66.925781 135.519531 C 61.765625 135.980469 56.640625 136.644531 51.515625 137.421875 C 50.683594 137.550781 50 138.621094 49.242188 139.25 C 50.019531 139.765625 50.722656 140.578125 51.554688 140.746094 C 53.699219 141.1875 55.882812 141.410156 58.066406 141.578125 C 63.796875 142.019531 69.53125 142.371094 75.449219 142.757812 C 75.449219 145.453125 75.449219 147.890625 75.449219 149.554688 C 67.644531 151.585938 60.15625 153.449219 52.71875 155.574219 C 51.40625 155.941406 50.390625 157.382812 49.242188 158.324219 C 50.722656 158.769531 52.203125 159.636719 53.664062 159.5625 C 61.300781 159.230469 68.941406 158.65625 76.78125 158.175781 C 81.222656 177.363281 93.003906 190.953125 110.222656 200.722656 C 109.613281 201.664062 109.113281 202.382812 108.652344 203.140625 C 91.691406 231.320312 82.351562 261.730469 82.832031 294.710938 C 83.164062 318.457031 94.816406 335.167969 116.714844 344.660156 C 117.472656 344.992188 118.378906 345.527344 118.695312 346.210938 C 125.148438 360.210938 153.484375 359.804688 161.769531 350.589844 C 162.398438 349.886719 163.75 349.460938 164.765625 349.480469 C 178.507812 349.554688 192.269531 349.8125 206.011719 349.832031 C 208.65625 349.832031 210.988281 349.648438 212.964844 351.972656 C 213.984375 353.171875 215.777344 353.820312 217.292969 354.523438 C 224.378906 357.773438 231.867188 357.550781 239.324219 356.554688 C 245.796875 355.703125 250.625 352.472656 254.082031 346.601562 C 255.171875 344.734375 258.890625 343.828125 261.515625 343.609375 C 264.511719 343.332031 267.601562 344.421875 270.691406 344.699219 C 286.339844 346.046875 300.230469 342.113281 311.234375 330.496094 C 322.21875 318.902344 325.917969 304.8125 323.3125 289.355469 C 319.410156 266.347656 306.648438 250.449219 284.027344 242.988281 C 282.859375 242.601562 281.621094 241.363281 281.140625 240.21875 C 279.070312 235.269531 277.554688 230.0625 275.277344 225.226562 C 271.578125 217.339844 267.453125 209.675781 263.460938 201.8125 C 271.78125 197.398438 279.179688 191.453125 285.230469 183.882812 Z M 289.261719 299.070312 C 290.351562 283.667969 288.667969 268.472656 284.933594 253.496094 C 284.804688 252.960938 284.746094 252.40625 284.601562 251.445312 C 301.003906 258.667969 311.363281 270.503906 314.988281 287.675781 C 317.800781 300.988281 315.839844 313.507812 306.425781 323.996094 C 297.046875 334.46875 284.859375 337.515625 270.800781 336.738281 C 273.152344 334.210938 275.257812 332.160156 277.128906 329.925781 C 284.636719 321.007812 288.445312 310.574219 289.261719 299.070312 Z M 265.566406 223.140625 C 276.703125 246.71875 283.027344 271.40625 281.457031 297.667969 C 280.4375 314.5625 272.28125 327.210938 257.539062 335.59375 C 256.96875 335.925781 256.339844 336.183594 255.171875 336.757812 C 255.710938 328.132812 256.023438 320.007812 256.746094 311.921875 C 258.1875 295.636719 259.777344 279.367188 257.558594 263.042969 C 257.058594 259.3125 256.152344 255.621094 255.230469 251.964844 C 255.023438 251.152344 253.933594 250.558594 253.25 249.878906 C 252.859375 250.78125 252.140625 251.667969 252.101562 252.589844 C 251.640625 265.425781 251.546875 278.257812 250.808594 291.074219 C 250.125 303.296875 248.738281 315.484375 247.792969 327.691406 C 247.496094 331.550781 247.773438 335.484375 247.421875 339.34375 C 247.21875 341.613281 246.277344 343.8125 245.648438 346.027344 C 245.257812 345.972656 244.890625 345.917969 244.5 345.878906 C 244.5 344.402344 244.539062 342.925781 244.484375 341.449219 C 244.410156 339.636719 243.929688 337.882812 241.746094 337.847656 C 239.507812 337.828125 239.117188 339.65625 239.0625 341.449219 C 238.988281 343.625 239.046875 345.824219 239.046875 348.410156 C 237.730469 348.519531 236.511719 348.632812 234.957031 348.761719 C 234.957031 346.230469 234.976562 343.960938 234.957031 341.707031 C 234.9375 339.953125 234.441406 338.417969 232.351562 338.402344 C 230.167969 338.382812 229.890625 340.007812 229.890625 341.742188 C 229.890625 344.015625 229.890625 346.304688 229.890625 348.945312 C 228.261719 348.851562 226.839844 348.761719 225.191406 348.648438 C 225.191406 345.992188 225.265625 343.609375 225.171875 341.246094 C 225.097656 339.472656 224.730469 337.679688 222.417969 337.753906 C 220.253906 337.808594 220.050781 339.601562 219.957031 341.207031 C 219.847656 342.980469 219.9375 344.773438 219.9375 347.300781 C 215.1875 344.199219 213.132812 340.117188 213.316406 335.390625 C 213.652344 326.65625 214.296875 317.90625 215.316406 309.207031 C 216.40625 299.828125 218.125 290.5 219.441406 281.140625 C 219.585938 280.160156 218.921875 279.070312 218.625 278.019531 C 217.832031 278.71875 216.648438 279.273438 216.277344 280.179688 C 210.652344 293.585938 207.140625 307.5625 206.121094 322.058594 C 205.679688 328.449219 206.046875 334.910156 206.046875 341.707031 C 193.230469 342.980469 179.988281 342.59375 166.910156 341.503906 C 168.613281 320.488281 164.339844 300.695312 157.683594 281.269531 C 157.238281 279.957031 156.757812 278.609375 156.074219 277.425781 C 155.683594 276.78125 154.835938 276.394531 154.1875 275.894531 C 153.796875 276.707031 152.984375 277.574219 153.078125 278.332031 C 153.558594 282.488281 154.371094 286.605469 154.871094 290.742188 C 156.480469 304.183594 158.070312 317.628906 159.496094 331.089844 C 159.976562 335.6875 159.496094 340.246094 156.574219 344.199219 C 155.871094 345.140625 155.332031 346.195312 154.722656 347.191406 C 154.316406 346.933594 153.929688 346.65625 153.519531 346.398438 C 153.519531 344.550781 153.558594 342.703125 153.503906 340.875 C 153.445312 339.085938 152.652344 337.441406 150.726562 337.867188 C 149.710938 338.085938 148.492188 339.710938 148.304688 340.875 C 147.933594 343.203125 148.195312 345.640625 148.195312 348.429688 C 146.898438 348.613281 145.492188 348.816406 143.625 349.09375 C 143.625 346.488281 143.644531 344.234375 143.625 341.984375 C 143.609375 340.171875 143.238281 338.382812 140.980469 338.402344 C 138.667969 338.417969 138.445312 340.210938 138.484375 342.019531 C 138.503906 344.089844 138.484375 346.175781 138.484375 348.207031 C 134.542969 348.6875 134.46875 348.632812 134.359375 345.160156 C 134.304688 343.460938 134.5625 341.6875 134.136719 340.117188 C 133.878906 339.15625 132.640625 337.996094 131.695312 337.847656 C 130.992188 337.71875 129.792969 338.917969 129.273438 339.804688 C 128.828125 340.578125 128.996094 341.726562 128.996094 342.722656 C 128.996094 343.699219 129.125 344.679688 129.238281 346.101562 C 125.851562 344.125 124.835938 341.300781 124.667969 338.03125 C 124.242188 329.074219 124.003906 320.121094 123.445312 311.183594 C 122.46875 295.488281 121.246094 279.808594 120.285156 264.09375 C 120.042969 260.234375 120.507812 256.320312 120.46875 252.445312 C 120.46875 251.558594 119.75 250.671875 119.359375 249.804688 C 118.675781 250.503906 117.492188 251.113281 117.363281 251.90625 C 116.121094 259.644531 114.050781 267.4375 114.144531 275.175781 C 114.328125 291.480469 115.699219 307.785156 116.492188 324.089844 C 116.679688 327.839844 116.511719 331.585938 116.511719 335.777344 C 114.734375 334.78125 113.070312 333.949219 111.515625 332.933594 C 96.832031 323.351562 90.671875 309.28125 90.710938 292.273438 C 90.765625 266.109375 97.441406 241.511719 109.261719 218.265625 C 110.390625 216.046875 111.535156 213.832031 112.8125 211.691406 C 114.238281 209.308594 115.828125 207.019531 117.234375 204.839844 C 163.25 222.789062 209.25 223.96875 256.191406 206.039062 C 259.207031 211.503906 262.738281 217.15625 265.566406 223.140625 Z M 252.511719 198.394531 C 233.570312 206.613281 213.707031 210.230469 193.15625 210.621094 C 169.058594 211.082031 145.625 207.609375 123.300781 198.246094 C 108.667969 192.117188 96.386719 183.050781 89.101562 168.480469 C 87.269531 164.804688 86.066406 160.816406 84.367188 156.460938 C 88.378906 156.015625 91.632812 155.777344 94.835938 155.257812 C 95.925781 155.074219 96.90625 154.167969 97.921875 153.597656 C 96.925781 152.96875 96 151.972656 94.925781 151.804688 C 91.300781 151.195312 87.640625 150.882812 83.644531 150.421875 C 83.515625 147.800781 83.402344 145.25 83.273438 142.5 C 87.398438 142.222656 91.265625 142.054688 95.09375 141.613281 C 96.167969 141.484375 97.144531 140.542969 98.164062 139.96875 C 97.238281 139.324219 96.40625 138.34375 95.390625 138.105469 C 92.097656 137.328125 88.75 136.703125 85.402344 136.296875 C 83.625 136.074219 83.332031 135.371094 83.476562 133.785156 C 84.570312 121.503906 87.863281 109.964844 94.335938 99.363281 C 95.167969 98.015625 95.59375 96.207031 95.59375 94.601562 C 95.464844 75.785156 98.21875 57.503906 105.542969 40.050781 C 107.078125 36.394531 108.929688 32.832031 110.90625 29.398438 C 114.53125 23.0625 116.863281 22.105469 123.519531 25.296875 C 130.234375 28.511719 136.746094 32.203125 143.089844 36.121094 C 147.730469 38.980469 152.117188 42.359375 156.332031 45.832031 C 158.828125 47.898438 161.140625 48.492188 164.25 47.585938 C 174.089844 44.722656 184.207031 43.765625 194.433594 44.097656 C 195.304688 44.132812 196.171875 44.207031 198.058594 44.316406 C 195.875 46.347656 194.101562 47.734375 192.640625 49.414062 C 188.957031 53.585938 186.296875 58.332031 185.445312 63.929688 C 184.964844 67.085938 186.257812 69.136719 188.867188 69.597656 C 191.214844 70.023438 192.933594 68.453125 193.546875 65.351562 C 195.171875 57.003906 200.519531 51.464844 207.417969 47.160156 C 208.25 46.644531 209.785156 46.644531 210.765625 47.03125 C 214.222656 48.417969 216.90625 47.566406 219.773438 45.277344 C 228.910156 38.003906 238.769531 31.796875 249.273438 26.628906 C 259.019531 21.84375 260.871094 22.289062 265.976562 31.742188 C 272.578125 43.96875 276.257812 57.1875 277.886719 70.910156 C 278.847656 78.996094 278.941406 87.195312 279.585938 95.320312 C 279.734375 97.128906 280.363281 99.011719 281.214844 100.621094 C 287.152344 111.792969 290.332031 123.683594 290.925781 136.554688 C 287.246094 137.273438 283.804688 137.828125 280.4375 138.675781 C 279.496094 138.917969 278.738281 139.953125 277.90625 140.617188 C 278.882812 141.132812 279.828125 141.964844 280.863281 142.074219 C 284.117188 142.480469 287.410156 142.609375 291.09375 142.886719 C 290.960938 145.453125 290.832031 147.875 290.683594 150.570312 C 287.171875 150.992188 283.804688 151.269531 280.511719 151.84375 C 279.570312 152.007812 278.753906 152.96875 277.90625 153.558594 C 278.738281 154.113281 279.511719 155.019531 280.417969 155.167969 C 283.34375 155.703125 286.300781 155.960938 290.167969 156.460938 C 288.445312 161.019531 287.246094 165.304688 285.300781 169.21875 C 278.253906 183.234375 266.640625 192.265625 252.511719 198.394531 Z M 252.511719 198.394531 " fill-opacity="1" fill-rule="nonzero"/></g><path fill="#000000" d="M 142.460938 123.589844 C 135.117188 123.683594 129.015625 129.90625 129.050781 137.21875 C 129.089844 144.566406 135.285156 150.660156 142.664062 150.585938 C 150.027344 150.53125 156.3125 144.308594 156.296875 137.125 C 156.277344 129.738281 149.894531 123.5 142.460938 123.589844 Z M 142.460938 123.589844 " fill-opacity="1" fill-rule="nonzero"/><path fill="#000000" d="M 232.792969 123.628906 C 225.285156 123.574219 219.179688 129.683594 219.164062 137.253906 C 219.144531 144.476562 225.191406 150.550781 232.441406 150.605469 C 239.988281 150.660156 246.257812 144.714844 246.257812 137.496094 C 246.257812 129.851562 240.246094 123.664062 232.792969 123.628906 Z M 232.792969 123.628906 " fill-opacity="1" fill-rule="nonzero"/><path fill="#000000" d="M 140 53.035156 C 135.359375 45.242188 129.585938 38.445312 121.707031 33.683594 C 120.765625 33.109375 119.378906 33.257812 118.195312 33.074219 C 118.5625 34.089844 118.730469 35.234375 119.324219 36.101562 C 123.390625 42.066406 127.570312 47.972656 131.808594 54.03125 C 130.640625 54.824219 129.996094 55.25 129.367188 55.691406 C 119.601562 62.230469 111.445312 70.28125 106.023438 80.804688 C 105.433594 81.96875 105.523438 83.5 105.304688 84.851562 C 106.46875 84.222656 107.816406 83.777344 108.761719 82.929688 C 112.144531 79.847656 115.160156 76.300781 118.75 73.492188 C 124.851562 68.730469 131.253906 64.316406 137.613281 59.867188 C 140.886719 57.59375 141.722656 55.914062 140 53.035156 Z M 140 53.035156 " fill-opacity="1" fill-rule="nonzero"/><path fill="#000000" d="M 269.859375 81.007812 C 265.199219 72.144531 258.835938 64.703125 250.789062 58.703125 C 248.664062 57.113281 246.480469 55.617188 244.058594 53.882812 C 248.644531 47.03125 253.101562 40.347656 257.578125 33.683594 C 257.449219 33.347656 257.320312 33.015625 257.171875 32.703125 C 256.023438 33.074219 254.746094 33.257812 253.730469 33.867188 C 246.3125 38.222656 241.003906 44.632812 236.511719 51.796875 C 233.847656 56.042969 234.347656 57.558594 238.675781 60.21875 C 249.441406 66.789062 259.59375 74.101562 267.804688 83.835938 C 268.066406 84.128906 268.285156 84.535156 268.621094 84.683594 C 269.082031 84.886719 269.804688 85.164062 270.136719 84.941406 C 270.523438 84.703125 270.875 83.945312 270.800781 83.484375 C 270.652344 82.632812 270.265625 81.804688 269.859375 81.007812 Z M 269.859375 81.007812 " fill-opacity="1" fill-rule="nonzero"/><path fill="#000000" d="M 208.121094 159.15625 C 204.699219 163.105469 200.464844 163.808594 195.652344 162.238281 C 190.917969 160.707031 190.179688 157.144531 190.457031 152.785156 C 190.605469 150.457031 188.679688 149 186.777344 150.050781 C 185.777344 150.605469 185.054688 152.601562 185.113281 153.910156 C 185.257812 157.289062 184.484375 159.875 181.28125 161.59375 C 176.675781 164.066406 171.792969 163.382812 168.003906 159.433594 C 166.820312 158.195312 165.339844 156.941406 164.027344 158.582031 C 163.304688 159.46875 163.398438 161.574219 163.933594 162.738281 C 164.5625 164.066406 165.96875 165.175781 167.261719 166.042969 C 173.347656 170.144531 181.0625 169.332031 187.886719 163.863281 C 188.535156 164.417969 189.03125 164.898438 189.585938 165.324219 C 196.355469 170.492188 207.214844 169.3125 211.984375 162.902344 C 213.058594 161.464844 213.410156 159.96875 211.984375 158.636719 C 210.617188 157.347656 209.265625 157.824219 208.121094 159.15625 Z M 208.121094 159.15625 " fill-opacity="1" fill-rule="nonzero"/><path fill="#000000" d="M 173.460938 85.460938 C 175.679688 84.589844 176.492188 82.503906 175.882812 79.773438 C 175.328125 77.261719 174.53125 74.710938 174.550781 72.164062 C 174.585938 68.101562 175.273438 64.058594 175.492188 59.996094 C 175.550781 58.960938 174.902344 57.871094 174.585938 56.820312 C 173.535156 57.355469 172.144531 57.648438 171.5 58.5 C 167.890625 63.132812 166.375 68.527344 166.097656 75.800781 C 166.46875 77.222656 166.96875 80.066406 168.023438 82.707031 C 169.113281 85.496094 171.222656 86.34375 173.460938 85.460938 Z M 173.460938 85.460938 " fill-opacity="1" fill-rule="nonzero"/></svg>